<svg xmlns="http://www.w3.org/2000/svg" xmlns:xlink="http://www.w3.org/1999/xlink" x="0" y="0" version="1.1" viewBox="0 0 24 24" xml:space="preserve" style="enable-background:new 0 0 24 24"><style type="text/css">.st0{fill:#fff}.st1{fill:#cce7ff}.st2{stroke:#1078ff;stroke-linecap:round;stroke-linejoin:round;stroke-miterlimit:10}.st2,.st4{fill:none}</style><g id="Duotone"><polygon points="18.5 10.5 17.5 11.3 17.5 5.2 10 .5 2.5 5.2 2.5 17.5 14.8 17.5 18.5 23.5 22.5 17 22.5 13.5" class="st0"/><polygon points="11.5 8 10 9 8.5 8 8.5 6.5 10 5.5 11.5 6.5" class="st1"/><polygon points="10 .5 2.5 5.2 2.5 8.2 10 3.5 17.5 8.2 17.5 5.2" class="st1"/><polygon points="18.5 10.5 18.5 13.5 20.5 14.5 20.5 16.5 18.5 17.5 18.5 23.5 22.5 17 22.5 13.5" class="st1"/><g id="XMLID_52_"><g><polyline points="2.5 5.2 2.5 17.5 12.5 17.5" class="st2"/></g></g><g id="XMLID_51_"><g><line x1="17.5" x2="17.5" y1="5.2" y2="8.5" class="st2"/></g></g><polyline points="19.5 6.5 10 .5 .5 6.5" class="st2"/><polygon points="11.5 8 10 9 8.5 8 8.5 6.5 10 5.5 11.5 6.5" class="st2"/><polygon points="18.5 23.5 22.5 17 22.5 13.5 18.5 10.5 14.5 13.5 14.5 17" class="st2"/><polygon points="20.5 16.5 18.5 17.5 16.5 16.5 16.5 14.5 18.5 13.5 20.5 14.5" class="st2"/></g><g id="Frames-24px"><rect width="24" height="24" class="st4"/></g></svg>